<?xml version="1.0" encoding="UTF-8" standalone="no"?>
<!-- Created with Inkscape (http://www.inkscape.org/) -->

<svg
   xmlns:dc="http://purl.org/dc/elements/1.1/"
   xmlns:cc="http://creativecommons.org/ns#"
   xmlns:rdf="http://www.w3.org/1999/02/22-rdf-syntax-ns#"
   xmlns:svg="http://www.w3.org/2000/svg"
   xmlns="http://www.w3.org/2000/svg"
   xmlns:sodipodi="http://sodipodi.sourceforge.net/DTD/sodipodi-0.dtd"
   xmlns:inkscape="http://www.inkscape.org/namespaces/inkscape"
   width="744.09448819"
   height="1052.3622047"
   id="svg3042"
   version="1.1"
   inkscape:version="0.48.3.1 r9886"
   sodipodi:docname="New document 2">
  <defs
     id="defs3044" />
  <sodipodi:namedview
     id="base"
     pagecolor="#ffffff"
     bordercolor="#666666"
     borderopacity="1.0"
     inkscape:pageopacity="0.0"
     inkscape:pageshadow="2"
     inkscape:zoom="0.35"
     inkscape:cx="375"
     inkscape:cy="520"
     inkscape:document-units="px"
     inkscape:current-layer="layer1"
     showgrid="false"
     inkscape:window-width="753"
     inkscape:window-height="597"
     inkscape:window-x="189"
     inkscape:window-y="51"
     inkscape:window-maximized="0" />
  <metadata
     id="metadata3047">
    <rdf:RDF>
      <cc:Work
         rdf:about="">
        <dc:format>image/svg+xml</dc:format>
        <dc:type
           rdf:resource="http://purl.org/dc/dcmitype/StillImage" />
        <dc:title></dc:title>
      </cc:Work>
    </rdf:RDF>
  </metadata>
  <g
     inkscape:label="Layer 1"
     inkscape:groupmode="layer"
     id="layer1">
    <path
       style="fill:#ffffff;fill-opacity:1;stroke:#ffffff;stroke-width:0;stroke-linejoin:round;stroke-miterlimit:4;stroke-opacity:1;stroke-dasharray:none"
       id="path3100"
       d="m 458.49478,234.07976 c -0.69277,-0.98318 -1.34804,-1.98059 -1.99224,-2.99378 -1.01689,-1.22454 -1.92472,-2.51783 -3.11386,-3.59008 -1.48309,-1.68452 -3.0205,-3.31992 -4.63875,-4.87422 -2.0077,-2.06388 -4.19707,-3.93926 -6.53705,-5.61426 -2.8328,-1.98052 -5.90206,-3.5746 -9.0123,-5.0656 -3.44727,-1.6255 -7.02588,-2.9406 -10.62881,-4.17212 -3.98082,-1.35874 -8.06051,-2.39115 -12.14507,-3.38199 -4.43496,-0.91768 -8.90559,-1.57697 -13.40701,-2.04991 -4.9028,-0.52722 -9.83658,-0.63168 -14.76318,-0.67207 71.3407,0.32347 41.42228,-0.4377 25.37236,0.40878 -5.37164,0.28148 -10.68532,1.06397 -15.95159,2.1292 -5.65429,1.15221 -11.09883,3.06833 -16.45676,5.17435 -5.42136,2.15251 -10.62164,4.79823 -15.68801,7.67704 -4.9384,2.85964 -9.61683,6.12462 -14.19271,9.52552 -4.41986,3.33051 -8.67055,6.86812 -12.78436,10.56749 -3.90188,3.55852 -7.50912,7.40633 -10.91381,11.43776 -3.38067,3.99247 -6.25706,8.35739 -8.96826,12.82005 -2.68969,4.45574 -4.72496,9.23583 -6.57748,14.0848 -1.82433,4.93837 -3.14613,10.03066 -4.19251,15.18367 -1.00699,5.09203 -1.53188,10.26088 -1.83888,15.43729 -0.33659,5.28951 -0.1576,10.58145 0.18063,15.86388 0.38477,5.4541 1.15739,10.86411 2.01965,16.25926 0.836,5.16617 2.05888,10.24127 3.55401,15.25236 1.56839,4.96212 3.53215,9.78781 5.51631,14.59517 1.95055,4.68402 4.48238,9.07175 7.18632,13.35153 2.74674,4.28739 6.02846,8.1789 9.499,11.88989 3.35639,3.5472 7.11035,6.67086 10.98597,9.62778 3.80781,2.94503 8.16161,5.02489 12.51095,7.02774 4.53869,1.91116 9.2685,3.24088 14.10157,4.13988 5.01015,0.98004 10.09329,1.37446 15.19053,1.378 -71.31549,-0.25673 -41.35165,1.29437 -25.42537,-1.20781 5.22609,-0.9052 10.34125,-2.33724 15.39744,-3.91884 4.99752,-1.53137 9.83629,-3.50546 14.58178,-5.68394 4.7666,-2.21731 9.27386,-4.92388 13.68028,-7.77747 4.51646,-2.92719 8.79049,-6.19961 12.96301,-9.59267 4.208,-3.44173 8.19443,-7.138 12.01387,-11.00315 3.67528,-3.74464 6.945,-7.84831 10.04897,-12.06992 2.95985,-4.02064 5.5156,-8.29978 7.77198,-12.7471 2.08989,-4.11118 3.70238,-8.42722 5.11809,-12.80827 1.32367,-4.08235 2.49373,-8.21229 3.72926,-12.32185 1.13935,-3.74035 2.228,-7.4895 3.0988,-11.30186 0.59043,-3.00614 1.26177,-5.99502 1.89789,-8.99137 0.40252,-1.60479 0.71724,-3.22964 1.13215,-4.83128 0.46177,-16.0414 42.44079,-14.97619 43.09449,0.73472 -0.0356,1.47998 -0.20999,2.95206 -0.43376,4.41401 -0.31674,2.22101 -0.7288,4.42649 -1.19441,6.62069 -0.67913,2.97372 -1.17633,5.98338 -1.74356,8.97907 -0.68472,3.5728 -1.35893,7.14623 -2.16085,10.69496 -0.7641,3.87507 -1.72779,7.70407 -2.67562,11.5368 -0.99967,4.16307 -2.06201,8.31092 -3.15592,12.45014 -1.12531,4.43575 -2.3121,8.85556 -3.42556,13.29433 -1.21535,4.53088 -2.36376,9.07891 -3.53857,13.62028 -1.19931,4.76904 -2.49263,9.51229 -3.84143,14.24093 -1.37669,4.92275 -2.73577,9.85054 -4.14477,14.7642 -1.43565,5.07374 -2.94931,10.12479 -4.37389,15.20166 -1.50027,5.15269 -2.95302,10.31862 -4.41437,15.48231 -1.44287,5.12564 -2.89151,10.24981 -4.38346,15.36142 -1.5344,5.04274 -2.9494,10.12023 -4.40857,15.18493 -1.42562,5.05749 -2.96507,10.08125 -4.38163,15.14138 -1.41706,5.11227 -2.78649,10.23742 -4.18061,15.35592 -1.40334,5.23876 -2.8921,10.45391 -4.2949,15.69279 -1.3456,5.24431 -2.62699,10.50457 -3.952,15.75423 -1.28077,5.33513 -2.7567,10.61984 -4.15402,15.92483 -1.41268,5.50617 -2.86763,11.00145 -4.35434,16.48807 -1.48747,5.55806 -3.03308,11.10049 -4.60268,16.63587 -1.52851,5.56319 -3.10743,11.11241 -4.60426,16.68428 -1.51594,5.42032 -2.99312,10.85147 -4.54695,16.2611 -1.48415,5.2936 -3.02904,10.56989 -4.48847,15.87042 -1.53494,5.32763 -2.96315,10.68481 -4.47798,16.01803 -1.44908,5.19374 -2.86219,10.39712 -4.30693,15.59215 -1.39106,5.07037 -2.82081,10.13054 -4.26633,15.18568 -1.46347,5.1325 -2.93384,10.26319 -4.44712,15.38127 -1.51721,5.16361 -3.01119,10.33371 -4.53,15.49691 -1.51677,5.15157 -2.99429,10.31437 -4.48736,15.4728 -1.50922,5.24979 -2.99566,10.50633 -4.46728,15.76683 -1.53696,5.29692 -3.04895,10.60124 -4.50536,15.92087 -1.30729,5.14668 -2.66082,10.28164 -3.96597,15.42891 -1.33063,5.03287 -2.66261,10.06539 -4.02867,15.08879 -1.27623,4.78029 -2.7357,9.50645 -4.14463,14.24806 -1.13857,3.85028 -2.26897,7.70424 -3.45246,11.54123 -0.59817,2.07702 -1.2966,4.12592 -1.79478,6.2304 -1.482,15.00532 -49.16543,12.58826 -42.50814,-0.95209 0.49731,-1.21912 0.78122,-2.51385 1.15783,-3.77464 0.54376,-1.98395 1.33763,-3.8821 2.19753,-5.74626 1.16604,-2.4494 2.54882,-4.77526 4.00793,-7.05806 1.75638,-2.67261 3.54342,-5.32451 5.36594,-7.95243 2.18736,-3.05628 4.59296,-5.94557 6.99659,-8.83167 2.66983,-3.17453 5.36171,-6.33002 8.08317,-9.46037 3.11374,-3.64809 6.40571,-7.13463 9.67383,-10.64276 3.50827,-3.85183 7.04407,-7.6764 10.65659,-11.4307 3.82891,-3.95393 7.72312,-7.84501 11.63777,-11.71401 3.95825,-3.87758 8.03838,-7.62937 12.14473,-11.34901 4.26157,-3.82383 8.50664,-7.66587 12.73679,-11.5244 4.25906,-3.80516 8.55745,-7.56659 12.8866,-11.29177 4.33489,-3.76944 8.78127,-7.40675 13.21427,-11.0593 4.40568,-3.64584 8.93016,-7.14168 13.5016,-10.57585 3.54059,-2.68295 7.10589,-5.3328 10.68758,-7.96054 0,0 41.32438,3.91388 41.32438,3.91388 l 0,0 c -3.62082,2.58479 -7.16472,5.2736 -10.7753,7.87216 -4.53363,3.42652 -9.13574,6.76551 -13.4952,10.4171 -4.44961,3.59044 -8.87429,7.21526 -13.20197,10.95219 -4.32088,3.71122 -8.63999,7.4239 -12.89663,11.2089 -4.28995,3.76367 -8.41872,7.7065 -12.67556,11.50774 -4.08118,3.6828 -8.15894,7.36972 -12.13311,11.16844 -3.89438,3.83656 -7.77539,7.68819 -11.58641,11.60733 -3.57522,3.72601 -7.13501,7.46479 -10.54347,11.34559 -3.17851,3.50886 -6.49567,6.89236 -9.53616,10.52489 -2.67588,3.11934 -5.32469,6.26153 -7.93212,9.43844 -2.38306,2.74448 -4.68452,5.56087 -6.84281,8.48669 -1.84685,2.50856 -3.50904,5.14524 -5.22172,7.74551 -1.361,2.12735 -2.76376,4.22786 -3.82946,6.52468 -0.78387,1.62165 -1.47346,3.28464 -2.02226,5.00029 -0.34043,1.40532 -0.73769,2.78891 -1.01621,4.20877 -4.50611,14.35299 -48.7914,11.85446 -42.54433,-1.79295 0.72656,-2.15007 1.57507,-4.25298 2.30472,-6.40296 1.38144,-3.75749 2.58269,-7.57755 3.80633,-11.38833 1.42678,-4.70896 2.92042,-9.39748 4.26055,-14.13249 1.35039,-5.00459 2.65283,-10.02175 4.03856,-15.01681 1.30165,-5.17933 2.71028,-10.33034 4.00841,-15.51048 1.45772,-5.32644 3.0094,-10.6276 4.52436,-15.93828 1.46154,-5.27598 2.952,-10.54403 4.44667,-15.81065 1.4959,-5.16091 2.94414,-10.33565 4.46481,-15.48946 1.51692,-5.16816 3.07086,-10.32453 4.54687,-15.50468 1.5121,-5.1029 2.95765,-10.22542 4.41039,-15.34544 1.44695,-5.04551 2.86514,-10.10003 4.28521,-15.15281 1.44679,-5.20801 2.92116,-10.40751 4.343,-15.6224 1.53117,-5.31424 2.98041,-10.65025 4.49065,-15.97057 1.44969,-5.3233 2.99596,-10.61918 4.48751,-15.93077 1.57083,-5.38265 3.05995,-10.78739 4.61286,-16.17534 1.49198,-5.59321 3.0792,-11.16 4.60352,-16.74437 1.56236,-5.51983 3.10894,-11.04443 4.58624,-16.58769 1.47991,-5.47417 2.93795,-10.95447 4.32972,-16.45178 1.37065,-5.29539 2.79436,-10.57753 4.08703,-15.89275 1.33006,-5.26835 2.67706,-10.5315 3.97896,-15.80686 1.38858,-5.24898 2.87591,-10.47069 4.27022,-15.71813 1.39676,-5.12218 2.73918,-10.25928 4.15091,-15.37747 1.4011,-5.07842 2.94991,-10.11201 4.40106,-15.17558 1.45188,-5.08058 2.85319,-10.176 4.40475,-15.22748 1.5459,-5.07936 2.92835,-10.20718 4.38372,-15.31298 1.48188,-5.14948 2.93469,-10.30705 4.41923,-15.45579 1.40707,-5.08964 2.91657,-10.14961 4.34062,-15.23445 1.40737,-4.90613 2.74146,-9.83305 4.09744,-14.75353 1.32512,-4.69684 2.61411,-9.4029 3.77516,-14.14354 1.16616,-4.52802 2.24544,-9.07866 3.52026,-13.57848 1.08721,-4.45838 2.26375,-8.89384 3.35776,-13.3505 1.06272,-4.11599 2.10489,-8.2378 3.06105,-12.38 0.90879,-3.8133 1.88762,-7.61249 2.61488,-11.46621 0.78001,-3.49348 1.40069,-7.01629 2.02664,-10.54002 0.54519,-3.00479 0.96982,-6.03084 1.56495,-9.02714 0.38006,-2.11616 0.74264,-4.23806 0.95971,-6.37787 0.13912,-1.17306 0.24702,-2.34719 0.21707,-3.53052 14.13962,0.56448 28.2681,1.63256 42.41885,1.69342 0.58426,0.003 0.52832,-1.57842 -0.0294,-1.75255 -0.20036,-0.0625 -0.0972,0.84755 -0.27106,0.56836 -0.77079,1.30847 -0.94954,2.86291 -1.46403,4.27391 -0.78745,2.96734 -1.68976,5.90596 -2.29234,8.92083 -0.86334,3.91603 -1.91423,7.78531 -3.17717,11.59272 -1.23369,4.14425 -2.50671,8.27637 -3.81633,12.39704 -1.45116,4.58994 -3.13129,9.10337 -5.23888,13.43764 -2.28063,4.67717 -4.88675,9.17414 -7.9024,13.4217 -3.12956,4.415 -6.42587,8.71615 -10.13952,12.66206 -3.81626,4.0232 -7.81489,7.86749 -12.05132,11.44948 -4.16792,3.54231 -8.45172,6.95398 -12.97423,10.03685 -4.43086,3.02359 -8.94694,5.92958 -13.73838,8.35787 -4.75456,2.3671 -9.59951,4.55713 -14.64022,6.25222 -5.1093,1.65983 -10.22915,3.29968 -15.48448,4.44667 -18.65621,3.85007 -37.63403,2.26626 -56.71668,1.82651 -5.1555,-0.31379 -10.28997,-0.94866 -15.32225,-2.14372 -4.9039,-1.25672 -9.73141,-2.83037 -14.27472,-5.09233 -4.43886,-2.24668 -8.75994,-4.73126 -12.59321,-7.93313 -3.8983,-3.1863 -7.66101,-6.54476 -11.00047,-10.32447 -3.47111,-3.97138 -6.73272,-8.12416 -9.49487,-12.62795 -2.76641,-4.49337 -5.27532,-9.13824 -7.22926,-14.04984 -2.01208,-4.94102 -3.95573,-9.91736 -5.5138,-15.02348 -1.50367,-5.18771 -2.70848,-10.44904 -3.52252,-15.79221 -0.85494,-5.52233 -1.60171,-11.06315 -2.01568,-16.63845 -0.35579,-5.44999 -0.58388,-10.91376 -0.24774,-16.37265 0.30615,-5.3704 0.85364,-10.72683 1.89134,-16.01052 1.04767,-5.37367 2.34874,-10.69837 4.18885,-15.8621 1.88227,-5.0806 3.89049,-10.1233 6.61359,-14.82481 2.73384,-4.65566 5.58435,-9.25706 9.00002,-13.45236 3.42453,-4.22787 7.0333,-8.28975 11.00836,-12.01302 4.13596,-3.83186 8.39035,-7.51608 12.87152,-10.94288 4.60014,-3.54275 9.27679,-6.99953 14.27437,-9.96983 5.03503,-3.16032 10.31044,-5.92246 15.76455,-8.29169 5.35455,-2.28725 10.7923,-4.43213 16.44208,-5.88141 5.25729,-1.29046 10.57467,-2.36261 15.98636,-2.73899 18.83346,-1.78053 37.93117,0.85835 56.71703,-0.64301 4.99024,0.1374 9.98053,0.41694 14.93229,1.07668 4.55611,0.62017 9.0957,1.4198 13.55112,2.5668 4.15179,1.09267 8.2877,2.25938 12.31063,3.76957 3.66516,1.37899 7.29881,2.85575 10.76711,4.68424 3.20185,1.71719 6.34637,3.55908 9.19447,5.82975 2.35833,1.93392 4.63076,3.95988 6.7719,6.13457 1.60886,1.65827 3.22619,3.30759 4.81654,4.98407 1.12178,1.34808 2.23411,2.706 3.28011,4.11262 0.6319,0.73577 1.15421,1.50194 2.0961,1.8605 0,0 -42.52814,3.82099 -42.52814,3.82099 z"
       inkscape:connector-curvature="0" />
    <path
       sodipodi:type="arc"
       style="fill:#ffffff;fill-opacity:1;stroke:#ffffff;stroke-width:0;stroke-linejoin:round;stroke-miterlimit:4;stroke-opacity:1;stroke-dasharray:none"
       id="path3106"
       sodipodi:cx="324.28571"
       sodipodi:cy="896.64789"
       sodipodi:rx="24.285715"
       sodipodi:ry="27.142857"
       d="m 348.57142,896.64789 a 24.285715,27.142857 0 1 1 -48.57143,0 24.285715,27.142857 0 1 1 48.57143,0 z"
       transform="translate(-2.8571431,-14.285714)" />
    <path
       style="fill:#ffffff;fill-opacity:1;stroke:#ffffff;stroke-width:0;stroke-linejoin:round;stroke-miterlimit:4;stroke-opacity:1;stroke-dasharray:none"
       id="path3108"
       d="m 321.30902,591.87486 c 5.09208,-1.33699 -58.61365,1.46474 -37.05607,-0.19128 4.31122,-0.28176 8.63155,-0.38883 12.94973,-0.50289 6.62919,-0.23666 13.26213,-0.32428 19.89196,-0.53752 7.75889,-0.28034 15.50445,-0.82091 23.24788,-1.3698 8.64684,-0.66592 17.29088,-1.37233 25.92822,-2.1525 8.79082,-0.75462 17.56593,-1.66975 26.34323,-2.56397 8.41621,-0.83077 16.83225,-1.66261 25.24766,-2.50153 7.90798,-0.83638 15.82213,-1.6138 23.72369,-2.50948 7.72942,-0.84027 15.44398,-1.80541 23.1605,-2.75463 7.64418,-0.91029 15.25761,-2.05173 22.86341,-3.2352 7.2889,-1.18088 14.57575,-2.37183 21.84221,-3.6844 6.83818,-1.22078 13.65268,-2.56198 20.45843,-3.95039 4.43791,-0.89539 2.22223,-0.44623 6.64706,-1.34745 0,0 40.7429,5.59517 40.7429,5.59517 l 0,0 c -4.4352,0.95062 -2.21296,0.49403 -6.66673,1.36968 -6.84968,1.38016 -13.68297,2.85027 -20.57725,3.99714 -7.28629,1.40745 -14.61112,2.58705 -21.93566,3.77595 -7.61928,1.26509 -15.26445,2.37619 -22.9217,3.3853 -7.72553,0.93019 -15.4397,1.95221 -23.1771,2.78087 -7.94258,0.92115 -15.89615,1.72668 -23.85033,2.54184 -8.45084,0.88399 -16.91212,1.66145 -25.36889,2.4883 -8.7946,0.88046 -17.58095,1.84358 -26.388,2.59447 -8.57967,0.80143 -17.16571,1.5195 -25.75087,2.26003 -7.67357,0.56207 -15.34371,1.16265 -23.0288,1.55215 -6.47418,0.25782 -12.95194,0.356 -19.42376,0.64572 -4.08179,0.1164 -8.16389,0.23748 -12.24218,0.44698 -15.60972,0.85909 -31.07785,3.17385 -46.89174,0.55637 0,0 42.2322,-6.68893 42.2322,-6.68893 z"
       inkscape:connector-curvature="0" />
  </g>
</svg>
