<?xml version="1.0" encoding="UTF-8" standalone="no"?>
<!-- Created with Inkscape (http://www.inkscape.org/) -->

<svg
   xmlns:dc="http://purl.org/dc/elements/1.1/"
   xmlns:cc="http://creativecommons.org/ns#"
   xmlns:rdf="http://www.w3.org/1999/02/22-rdf-syntax-ns#"
   xmlns:svg="http://www.w3.org/2000/svg"
   xmlns="http://www.w3.org/2000/svg"
   xmlns:xlink="http://www.w3.org/1999/xlink"
   xmlns:sodipodi="http://sodipodi.sourceforge.net/DTD/sodipodi-0.dtd"
   xmlns:inkscape="http://www.inkscape.org/namespaces/inkscape"
   width="512"
   height="512"
   id="svg3840"
   version="1.1"
   inkscape:version="0.48.3.1 r9886"
   sodipodi:docname="qlogo.svg"
   inkscape:export-filename="/home/pride/Documents/Comp/ Queryz/logos/qlogo.png"
   inkscape:export-xdpi="90"
   inkscape:export-ydpi="90">
  <defs
     id="defs3842">
    <linearGradient
       inkscape:collect="always"
       id="linearGradient3162">
      <stop
         style="stop-color:#ffffff;stop-opacity:1;"
         offset="0"
         id="stop3164" />
      <stop
         style="stop-color:#ffffff;stop-opacity:0;"
         offset="1"
         id="stop3166" />
    </linearGradient>
    <linearGradient
       inkscape:collect="always"
       id="linearGradient5210">
      <stop
         style="stop-color:#000000;stop-opacity:1;"
         offset="0"
         id="stop5212" />
      <stop
         style="stop-color:#000000;stop-opacity:0;"
         offset="1"
         id="stop5214" />
    </linearGradient>
    <filter
       id="filter4994"
       inkscape:menu-tooltip="Glowing metal texture"
       inkscape:menu="Bevels"
       inkscape:label="Glowing metal"
       color-interpolation-filters="sRGB">
      <feGaussianBlur
         id="feGaussianBlur4996"
         stdDeviation="3"
         result="result10" />
      <feBlend
         id="feBlend4998"
         in2="SourceGraphic"
         result="result5"
         mode="multiply"
         in="result10" />
      <feComposite
         id="feComposite5000"
         in2="SourceGraphic"
         in="result5"
         result="fbSourceGraphic"
         operator="over" />
      <feGaussianBlur
         id="feGaussianBlur5002"
         result="result9"
         stdDeviation="5" />
      <feSpecularLighting
         id="feSpecularLighting5004"
         in="result9"
         result="result1"
         lighting-color="rgb(255,255,255)"
         surfaceScale="1"
         specularConstant="2.2"
         specularExponent="45">
        <fePointLight
           id="fePointLight5006"
           x="-5000"
           y="-10000"
           z="20000" />
      </feSpecularLighting>
      <feComposite
         id="feComposite5008"
         in2="fbSourceGraphic"
         in="result1"
         result="result2"
         operator="in" />
      <feComposite
         id="feComposite5010"
         in2="fbSourceGraphic"
         in="result2"
         result="result4"
         operator="arithmetic"
         k2="2"
         k3="0.8" />
      <feBlend
         id="feBlend5012"
         in2="result4"
         in="result4"
         mode="multiply" />
    </filter>
    <filter
       id="filter5132"
       inkscape:menu-tooltip="Transparent plastic with deep colors"
       inkscape:menu="Bevels"
       inkscape:label="Deep colors plastic"
       color-interpolation-filters="sRGB">
      <feGaussianBlur
         id="feGaussianBlur5134"
         in="SourceGraphic"
         result="result6"
         stdDeviation="10" />
      <feComposite
         id="feComposite5136"
         in2="SourceGraphic"
         in="result6"
         operator="xor" />
      <feGaussianBlur
         id="feGaussianBlur5138"
         result="result2"
         stdDeviation="10" />
      <feComposite
         id="feComposite5140"
         in2="SourceGraphic"
         operator="atop"
         result="result91" />
      <feComposite
         id="feComposite5142"
         in2="result91"
         result="result4"
         in="result2"
         operator="xor" />
      <feGaussianBlur
         id="feGaussianBlur5144"
         in="result4"
         result="result3"
         stdDeviation="5" />
      <feSpecularLighting
         id="feSpecularLighting5146"
         lighting-color="rgb(255,255,255)"
         in="result3"
         result="result5"
         specularExponent="35"
         specularConstant="3"
         surfaceScale="12">
        <feDistantLight
           id="feDistantLight5148"
           elevation="45"
           azimuth="235" />
      </feSpecularLighting>
      <feComposite
         id="feComposite5150"
         in2="result5"
         in="SourceGraphic"
         k3="0.7"
         k2="0.8"
         operator="arithmetic"
         result="result7" />
      <feComposite
         id="feComposite5152"
         in2="SourceGraphic"
         in="result7"
         operator="in" />
    </filter>
    <filter
       inkscape:collect="always"
       id="filter5497">
      <feGaussianBlur
         inkscape:collect="always"
         stdDeviation="2.2535715"
         id="feGaussianBlur5499" />
    </filter>
    <linearGradient
       inkscape:collect="always"
       xlink:href="#linearGradient5210"
       id="linearGradient3043"
       gradientUnits="userSpaceOnUse"
       x1="257.14285"
       y1="514.85718"
       x2="254.28572"
       y2="340.57144" />
    <filter
       color-interpolation-filters="sRGB"
       inkscape:collect="always"
       id="filter5497-6">
      <feGaussianBlur
         inkscape:collect="always"
         stdDeviation="2.2535715"
         id="feGaussianBlur5499-1" />
    </filter>
    <linearGradient
       inkscape:collect="always"
       xlink:href="#linearGradient3162"
       id="linearGradient3168"
       x1="258.57144"
       y1="-115.14286"
       x2="262.85715"
       y2="236.28572"
       gradientUnits="userSpaceOnUse" />
  </defs>
  <sodipodi:namedview
     id="base"
     pagecolor="#ffffff"
     bordercolor="#666666"
     borderopacity="1.0"
     inkscape:pageopacity="0.0"
     inkscape:pageshadow="2"
     inkscape:zoom="0.7"
     inkscape:cx="195.51132"
     inkscape:cy="266.78768"
     inkscape:document-units="px"
     inkscape:current-layer="layer1"
     showgrid="false"
     width="512px"
     inkscape:window-width="1360"
     inkscape:window-height="744"
     inkscape:window-x="0"
     inkscape:window-y="24"
     inkscape:window-maximized="1"
     inkscape:object-paths="false"
     inkscape:snap-nodes="false"
     inkscape:snap-global="false" />
  <metadata
     id="metadata3845">
    <rdf:RDF>
      <cc:Work
         rdf:about="">
        <dc:format>image/svg+xml</dc:format>
        <dc:type
           rdf:resource="http://purl.org/dc/dcmitype/StillImage" />
        <dc:title></dc:title>
      </cc:Work>
    </rdf:RDF>
  </metadata>
  <g
     inkscape:label="Layer 1"
     inkscape:groupmode="layer"
     id="layer1"
     transform="translate(0,-540.36218)">
    <path
       sodipodi:type="arc"
       style="fill:#003399;fill-opacity:1;stroke:#00c884;stroke-width:1.02600002;stroke-miterlimit:4;stroke-opacity:0;stroke-dasharray:none;filter:url(#filter5497)"
       id="path3850"
       sodipodi:cx="254.28572"
       sodipodi:cy="255.57143"
       sodipodi:rx="224.28572"
       sodipodi:ry="226.42857"
       d="m 478.57144,255.57143 a 224.28572,226.42857 0 1 1 -448.57144,0 224.28572,226.42857 0 1 1 448.57144,0 z"
       transform="matrix(1.0155158,0,0,1.0122762,-0.37401125,534.37193)" />
    <flowRoot
       xml:space="preserve"
       id="flowRoot5122"
       style="font-size:40px;font-style:italic;font-variant:normal;font-weight:bold;font-stretch:normal;line-height:125%;letter-spacing:0px;word-spacing:0px;fill:#000000;fill-opacity:1;stroke:none;font-family:URW Chancery L;-inkscape-font-specification:URW Chancery L Bold Italic"
       transform="translate(0,540.36218)"><flowRegion
         id="flowRegion5124"><rect
           id="rect5126"
           width="232.85715"
           height="232.85715"
           x="121.42857"
           y="112"
           style="font-style:italic;font-variant:normal;font-weight:bold;font-stretch:normal;font-family:URW Chancery L;-inkscape-font-specification:URW Chancery L Bold Italic" /></flowRegion><flowPara
         id="flowPara5128" /></flowRoot>    <path
       style="fill:url(#linearGradient3168);fill-opacity:1;stroke:#00c884;stroke-width:1.02600002;stroke-miterlimit:4;stroke-opacity:0;stroke-dasharray:none;filter:url(#filter5497-6)"
       d="M 254.28125,28.4375 C 130.41167,28.4375 30,129.7907 30,254.84375 c 0,11.83354 0.923114,23.46884 2.65625,34.8125 C 39.157631,302.91065 52.750447,312 68.5625,312 l 370,0 c 17.94614,0 33.05755,-11.71781 38.15625,-27.9375 1.22045,-9.56449 1.84375,-19.31894 1.84375,-29.21875 C 478.5625,129.7907 378.15083,28.4375 254.28125,28.4375 z"
       id="path3127"
       transform="matrix(1.0155158,0,0,1.0122762,-0.37401125,534.37193)"
       inkscape:connector-curvature="0" />
    <path
       transform="matrix(1.0155158,0,0,1.0122762,2.7192744,535.75789)"
       d="m 478.57144,255.57143 a 224.28572,226.42857 0 1 1 -448.57144,0 224.28572,226.42857 0 1 1 448.57144,0 z"
       sodipodi:ry="226.42857"
       sodipodi:rx="224.28572"
       sodipodi:cy="255.57143"
       sodipodi:cx="254.28572"
       id="path5130"
       style="fill:url(#linearGradient3043);fill-opacity:1;stroke:#00c884;stroke-width:1.02600002;stroke-miterlimit:4;stroke-opacity:0;stroke-dasharray:none"
       sodipodi:type="arc" />
    <path
       style="fill:#ffffff;fill-opacity:1;stroke:#ffffff;stroke-width:0;stroke-linejoin:round;stroke-miterlimit:4;stroke-opacity:1;stroke-dasharray:none"
       id="path3100"
       d="m 326.25129,633.90538 c -0.54765,-0.51229 -1.0642,-1.03053 -1.57126,-1.55635 -0.80873,-0.64267 -1.52629,-1.31643 -2.48,-1.88817 -1.18174,-0.88663 -2.40923,-1.75034 -3.70496,-2.57595 -1.60457,-1.09204 -3.36264,-2.09532 -5.24895,-3.003 -2.28461,-1.07522 -4.77214,-1.96441 -7.29564,-2.80331 -2.79756,-0.91628 -5.70995,-1.68138 -8.64417,-2.40543 -3.24204,-0.79903 -6.57253,-1.43792 -9.90798,-2.05618 -3.62507,-0.59225 -7.2852,-1.05642 -10.97476,-1.42838 -4.01828,-0.41118 -8.07138,-0.61199 -12.11999,-0.78056 58.6327,2.31033 34.05755,1.0288 20.84624,0.96849 -4.42156,-0.0211 -8.80657,0.20996 -13.15887,0.58379 -4.67316,0.40559 -9.19085,1.19933 -13.64154,2.09058 -4.50386,0.91258 -8.83691,2.07835 -13.06506,3.36465 -4.12255,1.28056 -8.04037,2.77157 -11.87693,4.33357 -3.70675,1.53156 -7.27902,3.17169 -10.74236,4.89681 -3.28603,1.6611 -6.33629,3.47567 -9.22409,5.3881 -2.86723,1.89371 -5.32821,3.98875 -7.65555,6.13761 -2.30953,2.14607 -4.08829,4.47394 -5.71839,6.84175 -1.60891,2.41335 -2.80816,4.91877 -3.78236,7.46283 -0.94048,2.51478 -1.48638,5.08246 -1.85335,7.66047 -0.39381,2.63368 -0.36385,5.28407 -0.20288,7.93452 0.1955,2.73765 0.71078,5.46496 1.30003,8.18753 0.57278,2.60733 1.46557,5.18078 2.58352,7.73045 1.1793,2.52741 2.6866,4.99854 4.21105,7.4611 1.49957,2.39991 3.48347,4.66924 5.61127,6.88979 2.16279,2.22565 4.77407,4.26955 7.54459,6.22889 2.68028,1.87406 5.69675,3.54838 8.81691,5.14305 3.0647,1.58666 6.59731,2.75735 10.128,3.8894 3.68834,1.09194 7.54666,1.89901 11.49938,2.49391 4.09649,0.64074 8.26593,0.99098 12.45563,1.14626 -58.61347,-2.27623 -34.01844,-0.59849 -20.87213,-1.36945 4.31574,-0.29504 8.55197,-0.85674 12.743,-1.49497 4.14171,-0.61489 8.16277,-1.45585 12.11165,-2.40176 3.96712,-0.96469 7.73186,-2.18174 11.41701,-3.47531 3.77723,-1.32704 7.36279,-2.83393 10.86763,-4.40419 3.53504,-1.59349 6.89362,-3.32091 10.11869,-5.13774 3.1039,-1.76096 5.88238,-3.71358 8.52723,-5.73013 2.52197,-1.92045 4.71745,-3.98227 6.67061,-6.13717 1.80887,-1.99191 3.22987,-4.10058 4.49055,-6.24768 1.17843,-2.00056 2.23165,-4.02955 3.3382,-6.04638 1.01935,-1.83519 1.99722,-3.6763 2.79742,-5.55557 0.55187,-1.48474 1.16989,-2.95842 1.75911,-4.43689 0.36638,-0.78999 0.66106,-1.59265 1.03759,-2.38067 0.73478,-8.00389 35.21666,-6.20715 35.40606,1.66516 -0.062,0.73865 -0.238,1.46917 -0.45428,2.19314 -0.30953,1.10057 -0.69707,2.19049 -1.12836,3.27318 -0.6241,1.46586 -1.09944,2.95518 -1.63201,4.4354 -0.64194,1.76512 -1.27524,3.53089 -2.013,5.28046 -0.71387,1.91384 -1.59079,3.79861 -2.45475,5.68574 -0.9139,2.05067 -1.87895,4.09185 -2.86978,6.12777 -1.02321,2.18319 -2.09657,4.35656 -3.11012,6.54161 -1.0993,2.228 -2.14398,4.46661 -3.2102,6.7011 -1.09141,2.34752 -2.2595,4.67935 -3.47292,7.00219 -1.24059,2.41901 -2.46683,4.8411 -3.7338,7.25461 -1.29242,2.49271 -2.64847,4.97173 -3.93183,7.46635 -1.34729,2.53022 -2.65582,5.06851 -3.97137,7.60541 -1.29948,2.51844 -2.60371,5.03597 -3.94321,7.5459 -1.3729,2.47425 -2.64844,4.96947 -3.95998,7.45696 -1.28381,2.4849 -2.66046,4.94951 -3.93689,7.43599 -1.27798,2.51253 -2.51711,5.03293 -3.77637,7.54927 -1.26953,2.57616 -2.60872,5.13796 -3.87781,7.71421 -1.22217,2.58068 -2.39192,5.17127 -3.59728,7.75523 -1.17089,2.62804 -2.50109,5.225 -3.76713,7.83444 -1.28312,2.70954 -2.60073,5.41238 -3.94426,8.10992 -1.34575,2.73322 -2.73892,5.45688 -4.15167,8.17631 -1.37958,2.73456 -2.80028,5.46059 -4.15404,8.20046 -1.36607,2.66352 -2.70054,5.33362 -4.09755,7.99067 -1.33714,2.60112 -2.72383,5.1918 -4.04082,7.79716 -1.37965,2.61661 -2.67223,5.25123 -4.03548,7.87125 -1.30611,2.55229 -2.58287,5.11046 -3.88545,7.66357 -1.25568,2.49233 -2.54296,4.97844 -3.84309,7.46156 -1.31658,2.52125 -2.6388,5.04139 -3.99599,7.55393 -1.36146,2.53518 -2.70393,5.0743 -4.06669,7.60923 -1.36083,2.52918 -2.68963,5.06514 -4.03114,7.59845 -1.35678,2.57849 -2.695,5.16108 -4.02113,7.74607 -1.38062,2.60122 -2.74089,5.20687 -4.05582,7.82184 -1.18852,2.53305 -2.41479,5.05886 -3.60156,7.59223 -1.2052,2.47545 -2.41148,4.95067 -3.6456,7.42032 -1.15487,2.35085 -2.45916,4.66914 -3.72227,6.99666 -1.02114,1.89016 -2.03562,3.78237 -3.09341,5.66453 -0.53767,1.02012 -1.15713,2.02316 -1.61321,3.06003 -1.55047,7.45529 -40.69126,4.81109 -34.91931,-1.75616 0.43577,-0.59435 0.6978,-1.2329 1.03528,-1.85175 0.49088,-0.97526 1.18548,-1.90005 1.93355,-2.80591 1.0127,-1.18915 2.2008,-2.30998 3.4507,-3.40703 1.50288,-1.2829 3.0305,-2.55455 4.58675,-3.81319 1.86563,-1.46168 3.90693,-2.83336 5.94656,-4.20349 2.26481,-1.50632 4.54732,-3.00242 6.85362,-4.48504 2.64018,-1.72961 5.42329,-3.37307 8.18727,-5.02811 2.969,-1.81955 5.96,-3.62466 9.01251,-5.39234 3.23482,-1.86092 6.52192,-3.68848 9.82531,-5.50438 3.33943,-1.8189 6.77625,-3.57121 10.23392,-5.3067 3.58755,-1.78285 7.16195,-3.57536 10.72446,-5.37651 3.58508,-1.77359 7.20152,-3.5242 10.84243,-5.25574 3.64664,-1.75346 7.38198,-3.43753 11.10665,-5.12966 3.70205,-1.68953 7.49846,-3.30056 11.3321,-4.87934 2.96967,-1.2344 5.9589,-2.45143 8.96114,-3.65693 0,0 33.88072,3.20082 33.88072,3.20082 l 0,0 c -3.03346,1.18287 -6.00598,2.42005 -9.0313,3.61015 -3.80238,1.57608 -7.65912,3.10637 -11.32332,4.80022 -3.73699,1.66053 -7.4542,3.33907 -11.09417,5.07649 -3.63381,1.7248 -7.26621,3.45039 -10.84885,5.214 -3.60956,1.75197 -7.09061,3.59831 -10.67377,5.37001 -3.43615,1.71782 -6.86959,3.43781 -10.22036,5.21683 -3.28603,1.80025 -6.56138,3.60853 -9.78071,5.4526 -3.02122,1.75465 -6.03007,3.51616 -8.91767,5.3532 -2.69034,1.65804 -5.49186,3.24927 -8.07148,4.97335 -2.2686,1.47848 -4.51542,2.96922 -6.72898,4.47858 -2.0196,1.29999 -3.9737,2.63837 -5.81253,4.03574 -1.5736,1.19821 -2.99826,2.46597 -4.46361,3.71407 -1.16582,1.02232 -2.36536,2.02994 -3.29219,3.14584 -0.68023,0.7869 -1.28389,1.59732 -1.77296,2.43834 -0.31095,0.69213 -0.66814,1.37173 -0.92849,2.07304 -4.02175,7.03814 -40.36757,4.45553 -34.93044,-2.17754 0.64481,-1.05278 1.38884,-2.07829 2.0362,-3.13094 1.2187,-1.83641 2.2907,-3.70958 3.38089,-5.57744 1.27704,-2.31064 2.60859,-4.60911 3.81501,-6.9354 1.22079,-2.46072 2.40244,-4.92914 3.65209,-7.38404 1.18463,-2.54952 2.45655,-5.08166 3.63827,-7.63174 1.31616,-2.61832 2.70899,-5.22123 4.07183,-7.82998 1.31818,-2.59303 2.65998,-5.18123 4.00518,-7.76857 1.34387,-2.53446 2.64886,-5.07726 4.01295,-7.60748 1.3613,-2.53742 2.75278,-5.0679 4.08072,-7.61253 1.3559,-2.505 2.65752,-5.02186 3.96502,-7.53718 1.30109,-2.47825 2.57874,-4.96188 3.85788,-7.4446 1.30454,-2.55947 2.63158,-5.11389 3.91574,-7.67757 1.37626,-2.61004 2.68568,-5.23343 4.04487,-7.84715 1.30948,-2.61703 2.69774,-5.21744 4.04138,-7.82734 1.41036,-2.64307 2.75405,-5.29961 4.14983,-7.94583 1.35022,-2.75066 2.77814,-5.48526 4.15475,-8.23052 1.40643,-2.71185 2.80003,-5.42658 4.13706,-8.15272 1.33768,-2.69152 2.6575,-5.38677 3.92324,-8.09252 1.2439,-2.60546 2.53111,-5.20269 3.71136,-7.8204 1.20993,-2.59317 2.43367,-5.18322 3.62061,-7.78074 1.25763,-2.58172 2.59578,-5.14683 3.85808,-7.72761 1.26151,-2.51811 2.4787,-5.0453 3.75245,-7.56095 1.26413,-2.49609 2.64865,-4.96534 3.95358,-7.4525 1.30593,-2.49564 2.57059,-5.00022 3.95778,-7.47834 1.38316,-2.49219 2.63305,-5.01355 3.9424,-7.52169 1.33207,-2.52918 2.64049,-5.06328 3.97473,-7.592 1.26929,-2.50152 2.6221,-4.98513 3.90522,-7.48374 1.26546,-2.4098 2.47114,-4.83219 3.69469,-7.25071 1.19322,-2.30765 2.35695,-4.62101 3.41627,-6.95551 1.05882,-2.22806 2.04673,-4.47005 3.19424,-6.68076 0.99238,-2.19565 2.0577,-4.37713 3.05563,-6.57172 0.96466,-2.02523 1.91258,-4.05401 2.79025,-6.09557 0.83143,-1.8786 1.72012,-3.74802 2.40324,-5.65227 0.71852,-1.72264 1.30671,-3.46469 1.89926,-5.20708 0.51466,-1.48544 0.93072,-2.98512 1.48624,-4.4648 0.35928,-1.04627 0.70428,-2.0959 0.93009,-3.15888 0.1403,-0.58213 0.25511,-1.16572 0.2565,-1.75809 11.60984,0.70799 23.19937,1.66736 34.82952,2.12398 0.48013,0.0197 0.46919,-0.77301 0.0146,-0.87685 -0.16332,-0.0374 -0.0987,0.4207 -0.23539,0.27593 -0.66254,0.63078 -0.84388,1.40235 -1.29803,2.09209 -0.71298,1.45941 -1.51971,2.90101 -2.08179,4.38975 -0.79636,1.93131 -1.74584,3.8336 -2.86825,5.69859 -1.10583,2.03421 -2.2437,4.06119 -3.41144,6.08133 -1.29444,2.25045 -2.77542,4.45574 -4.60376,6.55863 -1.97819,2.26904 -4.21992,4.43821 -6.79277,6.47041 -2.67016,2.11245 -5.47487,4.16296 -8.61477,6.02336 -3.22594,1.89594 -6.59782,3.69695 -10.15935,5.35971 -3.50434,1.64497 -7.10104,3.22118 -10.88669,4.62584 -3.70898,1.37781 -7.48542,2.69427 -11.47761,3.76366 -3.96052,1.03992 -7.99143,1.98862 -12.17228,2.68405 -4.23644,0.67573 -8.48112,1.34114 -12.82623,1.75617 -15.42009,1.36244 -30.98421,-7.5e-4 -46.65982,-0.79528 -4.23073,-0.31212 -8.43703,-0.78409 -12.54696,-1.53297 -4.00304,-0.77581 -7.93623,-1.70777 -11.6206,-2.97516 -3.59887,-1.25662 -7.09563,-2.62862 -10.17557,-4.34443 -3.13372,-1.70998 -6.15218,-3.50193 -8.81341,-5.49169 -2.76521,-2.08951 -5.35419,-4.26339 -7.52485,-6.59767 -2.17441,-2.32918 -4.13378,-4.72634 -5.6311,-7.2401 -1.54445,-2.53022 -3.03188,-5.07603 -4.19948,-7.67509 -1.12109,-2.63822 -1.99489,-5.30421 -2.5457,-7.99935 -0.58044,-2.78592 -1.07156,-5.57783 -1.28836,-8.37694 -0.17177,-2.73472 -0.23826,-5.47251 0.15894,-8.19081 0.37057,-2.67502 0.93919,-5.33579 1.90916,-7.94543 0.98016,-2.6543 2.16749,-5.27651 3.79437,-7.80202 1.65967,-2.48269 3.42205,-4.94264 5.76447,-7.21055 2.35024,-2.24465 4.79516,-4.45867 7.69563,-6.45268 2.90849,-2.01003 5.96474,-3.93154 9.31457,-5.6728 3.48449,-1.79066 7.06305,-3.50397 10.82232,-5.0818 3.85963,-1.63217 7.78025,-3.21908 11.95389,-4.5532 4.20864,-1.42793 8.60601,-2.6496 13.14157,-3.66954 4.45195,-0.98193 8.96911,-1.89022 13.64515,-2.44443 4.3499,-0.48666 8.74436,-0.86239 13.20095,-0.88753 15.51996,-0.32271 31.15924,1.57145 46.6339,1.38684 4.09878,0.21888 8.19447,0.509 12.25004,0.98788 3.73126,0.44719 7.44495,0.98358 11.08179,1.69107 3.38843,0.67118 6.76218,1.3789 10.03547,2.25488 2.98212,0.79964 5.93616,1.64718 8.74651,2.66557 2.59379,0.95472 5.13771,1.97003 7.42847,3.19074 1.89565,1.03765 3.71865,2.11871 5.43043,3.27013 1.28574,0.87728 2.57859,1.75037 3.84868,2.63621 0.89222,0.70758 1.77646,1.41979 2.60507,2.15436 0.50314,0.38678 0.91548,0.78545 1.68174,0.99304 0,0 -35.04145,0.62893 -35.04145,0.62893 z"
       inkscape:connector-curvature="0" />
    <path
       sodipodi:type="arc"
       style="fill:#ffffff;fill-opacity:1;stroke:#ffffff;stroke-width:0;stroke-linejoin:round;stroke-miterlimit:4;stroke-opacity:1;stroke-dasharray:none"
       id="path3106"
       sodipodi:cx="324.28571"
       sodipodi:cy="896.64789"
       sodipodi:rx="24.285715"
       sodipodi:ry="27.142857"
       d="m 348.57142,896.64789 a 24.285715,27.142857 0 1 1 -48.57143,0 24.285715,27.142857 0 1 1 48.57143,0 z"
       transform="matrix(0.82196941,0.03011824,-0.02214482,0.49981954,-47.46587,495.87237)" />
    <path
       style="fill:#ffffff;fill-opacity:1;stroke:#ffffff;stroke-width:0;stroke-linejoin:round;stroke-miterlimit:4;stroke-opacity:1;stroke-dasharray:none"
       id="path3108"
       d="m 205.56547,808.60657 c 4.21516,-0.51488 -48.21106,-1.03323 -30.45469,-1.2117 3.54991,-0.0109 7.10347,0.0656 10.65541,0.13868 5.45421,0.0813 10.90825,0.23733 16.36249,0.33043 6.38376,0.0935 12.76236,0.0566 19.13939,0.0155 7.12217,-0.0725 14.24294,-0.16515 21.35986,-0.29495 7.2425,-0.1124 14.47562,-0.3055 21.71011,-0.48811 6.93625,-0.16175 13.87239,-0.32404 20.8082,-0.4899 6.51865,-0.17985 13.04103,-0.33006 19.55572,-0.53976 6.37195,-0.18719 12.73447,-0.43725 19.0982,-0.67927 6.30346,-0.22476 12.58674,-0.56596 18.86469,-0.92842 6.01738,-0.37069 12.03333,-0.74649 18.0352,-1.18367 5.64782,-0.40424 11.27883,-0.86934 16.90369,-1.35832 3.66766,-0.31387 1.8365,-0.1561 5.49353,-0.47329 0,0 33.36551,4.02369 33.36551,4.02369 l 0,0 c -3.66665,0.34156 -1.82992,0.18028 -5.51018,0.4838 -5.66078,0.48353 -11.3101,1.01251 -17.00239,1.37811 -6.02028,0.48401 -12.06719,0.85299 -18.11406,1.22662 -6.29084,0.40284 -12.59953,0.72794 -18.91588,1.00167 -6.37076,0.23226 -12.73422,0.51074 -19.11246,0.69188 -6.54898,0.2212 -13.10438,0.38427 -19.66055,0.55215 -6.96589,0.1873 -13.93803,0.32106 -20.90755,0.47963 -7.2484,0.17518 -14.49182,0.39193 -21.74757,0.502 -7.06998,0.14217 -14.14334,0.24248 -21.2165,0.35404 -6.31988,0.0498 -12.63779,0.11899 -18.96334,0.0822 -5.32728,-0.0662 -10.65397,-0.21215 -15.98002,-0.26226 -3.35771,-0.0648 -6.71574,-0.12719 -10.0726,-0.14529 -12.84972,-0.0407 -25.61533,0.65032 -38.55589,-1.13423 0,0 34.86168,-2.0713 34.86168,-2.0713 z"
       inkscape:connector-curvature="0" />
  </g>
</svg>
